<?xml version="1.0" encoding="utf-8"?>
<!-- Generator: Adobe Illustrator 25.4.1, SVG Export Plug-In . SVG Version: 6.00 Build 0)  -->
<svg version="1.1" id="Layer_1" xmlns:v="https://vecta.io/nano"
	 xmlns="http://www.w3.org/2000/svg" xmlns:xlink="http://www.w3.org/1999/xlink" x="0px" y="0px" viewBox="0 0 33 34"
	 style="enable-background:new 0 0 33 34;" xml:space="preserve">
<style type="text/css">
	.st0{fill:#F4A10C;}
	.st1{fill:#435EBE;}
</style>
<g>
	<polygon class="st0" points="4.8,14.1 8.3,14.1 8.3,26.3 13,21.8 13,9.7 0,9.7 0,34 4.8,29.5 	"/>
	<polygon class="st1" points="26.1,21.9 13,21.9 13,21.8 8.3,26.3 8.3,26.3 21.3,26.3 21.3,29.5 4.8,29.5 4.8,29.5 0,34 0,34 
		26.1,34 	"/>
	<polygon class="st1" points="28.2,4.4 28.2,4.4 28.2,12.9 19.1,12.9 19.1,12.9 14.3,17.4 14.3,17.4 33,17.4 33,0 33,0 	"/>
	<polygon class="st0" points="19.1,4.4 28.2,4.4 33,0 14.3,0 14.3,17.4 19.1,12.9 	"/>
</g>
</svg>
