<?xml version="1.0" encoding="utf-8"?>
<!-- Generator: Adobe Illustrator 25.4.1, SVG Export Plug-In . SVG Version: 6.00 Build 0)  -->
<svg version="1.1" id="Layer_1" xmlns="http://www.w3.org/2000/svg" xmlns:xlink="http://www.w3.org/1999/xlink" x="0px" y="0px"
	 viewBox="0 0 119.8 34" style="enable-background:new 0 0 119.8 34;" xml:space="preserve">
<style type="text/css">
	.st0{fill:#F4A10C;}
	.st1{fill:#435EBE;}
	.st2{fill-rule:evenodd;clip-rule:evenodd;fill:#F4A10C;}
	.st3{fill-rule:evenodd;clip-rule:evenodd;fill:#435EBE;}
</style>
<g>
	<polygon class="st0" points="4.5,14.5 7.8,14.5 7.8,26.9 12.4,22.4 12.4,10 0,10 0,34.7 4.5,30.2 	"/>
	<polygon class="st1" points="24.8,22.4 12.4,22.4 12.4,22.4 7.8,26.9 7.8,26.9 20.2,26.9 20.2,30.2 4.5,30.2 4.5,30.2 0,34.7 
		0,34.8 24.8,34.8 	"/>
	<polygon class="st1" points="26.8,4.7 26.8,4.7 26.8,13.3 18.1,13.3 18.1,13.3 13.6,17.8 13.6,17.8 31.3,17.8 31.3,0.1 31.3,0.1 	
		"/>
	<polygon class="st0" points="18.1,4.7 26.8,4.7 31.3,0.1 13.6,0.1 13.6,17.8 18.1,13.3 	"/>
</g>
<g>
	<path class="st2" d="M83.5,0h31.8v10.2h-10.8V34H94.3V10.2H83.5V0z"/>
</g>
<g>
	<path class="st3" d="M76.6,0.1v10.2H61.2c0,0-5.5,0.7-5.5,6.7s5.3,6.9,5.3,6.9h6.5v-6.6h8.9c0,5.6,0,11.2,0,16.8H60.2
		c0,0-7.4-0.7-11.4-5.8s-4-10.9-4-10.9s-0.5-7.6,5.2-13c3.2-3,6.9-4,9.6-4.2H63L76.6,0.1L76.6,0.1z"/>
</g>
</svg>
